<?xml version="1.0" encoding="utf-8"?>
<!-- Generator: Adobe Illustrator 23.0.3, SVG Export Plug-In . SVG Version: 6.00 Build 0)  -->
<svg version="1.1" id="Layer_1" xmlns="http://www.w3.org/2000/svg" xmlns:xlink="http://www.w3.org/1999/xlink" x="0px" y="0px"
	 viewBox="0 0 87.2 98.3" style="enable-background:new 0 0 87.2 98.3;" xml:space="preserve">
<style type="text/css">
	.st0{fill:#FFFFFF;}
</style>
<g>
	<polygon class="st0" points="56.3,12 87.2,63.5 87.2,43.3 	"/>
	<path class="st0" d="M87.2,34.8v-7.4c0-2.1-1.1-4.1-3-5.2L62.5,9.7L87.2,34.8z"/>
	<path class="st0" d="M42.1,0c-0.5,0.1-1,0.3-1.5,0.6L3,22.2c-1.9,1.1-3,3.1-3,5.2v43.2c0,2.1,1.1,4.1,3,5.2l37.6,21.6
		c1.9,1.1,4.1,1.1,6,0l37.6-21.6c0.9-0.5,1.6-1.3,2.1-2.1L42.1,0z"/>
</g>
</svg>
