<!-- Generator: Adobe Illustrator 23.0.3, SVG Export Plug-In  -->
<svg version="1.1" xmlns="http://www.w3.org/2000/svg" xmlns:xlink="http://www.w3.org/1999/xlink" x="0px" y="0px" width="27px"
	 height="566.2px" viewBox="0 0 27 566.2" style="enable-background:new 0 0 27 566.2;" xml:space="preserve">
<style type="text/css">
	.st0{fill:#FFFFFF;}
</style>
<defs>
</defs>
<g>
	<polygon class="st0" points="27,40.4 0,21.9 0,0 27,18.5 	"/>
	<polygon class="st0" points="27,80.9 0,62.3 0,40.4 27,59 	"/>
	<polygon class="st0" points="27,121.3 0,102.8 0,80.9 27,99.4 	"/>
	<polygon class="st0" points="27,161.8 0,143.2 0,121.3 27,139.9 	"/>
	<polygon class="st0" points="27,202.2 0,183.7 0,161.8 27,180.3 	"/>
	<polygon class="st0" points="27,242.6 0,224.1 0,202.2 27,220.8 	"/>
	<polygon class="st0" points="27,283.1 0,264.6 0,242.7 27,261.2 	"/>
	<polygon class="st0" points="27,323.5 0,305 0,283.1 27,301.6 	"/>
	<polygon class="st0" points="27,364 0,345.5 0,323.6 27,342.1 	"/>
	<polygon class="st0" points="27,404.4 0,385.9 0,364 27,382.5 	"/>
	<polygon class="st0" points="27,444.9 0,426.4 0,404.5 27,423 	"/>
	<polygon class="st0" points="27,485.3 0,466.8 0,444.9 27,463.4 	"/>
	<polygon class="st0" points="27,525.8 0,507.2 0,485.3 27,503.9 	"/>
	<polygon class="st0" points="27,566.2 0,547.7 0,525.8 27,544.3 	"/>
</g>
</svg>
