<!-- Generator: Adobe Illustrator 23.0.3, SVG Export Plug-In  -->
<svg version="1.1" xmlns="http://www.w3.org/2000/svg" xmlns:xlink="http://www.w3.org/1999/xlink" x="0px" y="0px" width="138.5px"
	 height="125.8px" viewBox="0 0 138.5 125.8" style="enable-background:new 0 0 138.5 125.8;" xml:space="preserve">
<style type="text/css">
	.st0{fill:#FFFFFF;}
</style>
<defs>
</defs>
<polygon class="st0" points="138.5,0 115.8,0 138.5,22.7 "/>
<polygon class="st0" points="56.8,0 138.5,81.7 138.5,49.9 88.7,0 "/>
<polygon class="st0" points="0,125.8 32.8,121.2 4.6,93 "/>
<path class="st0" d="M16.9,55.4c0-2.7,0.4-5.4,1.1-7.9l-6.2-6.2l-3.9,28l48.8,48.8l28-3.9L54.2,83.6c-2.5,0.7-5.2,1.1-7.9,1.1
	C30.1,84.7,16.9,71.5,16.9,55.4z"/>
<path class="st0" d="M70.1,72.4l38.3,38.3l28-3.9L73,43.4c1.6,3.6,2.5,7.7,2.5,11.9C75.6,61.7,73.6,67.6,70.1,72.4z"/>
<path class="st0" d="M58.2,28.6L29.6,0H17.5l-2.4,17.3l14.1,14.1c4.8-3.4,10.7-5.4,17-5.4C50.5,26,54.6,26.9,58.2,28.6z"/>
</svg>
